<mxfile host="app.diagrams.net" agent="Mozilla/5.0 (Macintosh; Intel Mac OS X 10_15_7) AppleWebKit/537.36 (KHTML, like Gecko) Chrome/128.0.0.0 Safari/537.36" version="24.7.8">
  <diagram name="Página-1" id="NahkwGALdErV-IAi_owB">
    <mxGraphModel dx="1288" dy="771" grid="1" gridSize="10" guides="1" tooltips="1" connect="1" arrows="1" fold="1" page="1" pageScale="1" pageWidth="1169" pageHeight="827" background="none" math="0" shadow="0">
      <root>
        <mxCell id="0" />
        <mxCell id="1" parent="0" />
        <mxCell id="K81uS18izymxrRsmIKyo-101" value="&lt;span style=&quot;font-size: 10px;&quot;&gt;&lt;span&gt;1 : n&lt;/span&gt;&lt;/span&gt;" style="text;whiteSpace=wrap;html=1;align=center;fontStyle=1" vertex="1" parent="1">
          <mxGeometry x="381" y="296" width="30" height="30" as="geometry" />
        </mxCell>
        <mxCell id="K81uS18izymxrRsmIKyo-123" value="" style="group" vertex="1" connectable="0" parent="1">
          <mxGeometry x="512.8" y="208" width="260" height="190" as="geometry" />
        </mxCell>
        <mxCell id="K81uS18izymxrRsmIKyo-104" value="FichaAtendimento" style="rounded=0;whiteSpace=wrap;html=1;fontSize=20;" vertex="1" parent="K81uS18izymxrRsmIKyo-123">
          <mxGeometry y="130" width="200" height="60" as="geometry" />
        </mxCell>
        <mxCell id="K81uS18izymxrRsmIKyo-107" value="" style="endArrow=oval;html=1;rounded=0;endFill=1;" edge="1" parent="K81uS18izymxrRsmIKyo-123">
          <mxGeometry width="50" height="50" relative="1" as="geometry">
            <mxPoint x="9.999999999999943" y="130" as="sourcePoint" />
            <mxPoint x="10" y="10" as="targetPoint" />
          </mxGeometry>
        </mxCell>
        <mxCell id="K81uS18izymxrRsmIKyo-108" value="" style="endArrow=oval;html=1;rounded=0;endFill=0;" edge="1" parent="K81uS18izymxrRsmIKyo-123">
          <mxGeometry width="50" height="50" relative="1" as="geometry">
            <mxPoint x="45.219999999999914" y="130" as="sourcePoint" />
            <mxPoint x="45.22000000000003" y="30" as="targetPoint" />
          </mxGeometry>
        </mxCell>
        <mxCell id="K81uS18izymxrRsmIKyo-109" value="" style="endArrow=oval;html=1;rounded=0;endFill=0;" edge="1" parent="K81uS18izymxrRsmIKyo-123">
          <mxGeometry width="50" height="50" relative="1" as="geometry">
            <mxPoint x="82.99999999999989" y="130" as="sourcePoint" />
            <mxPoint x="83.42999999999995" y="50" as="targetPoint" />
          </mxGeometry>
        </mxCell>
        <mxCell id="K81uS18izymxrRsmIKyo-110" value="" style="endArrow=oval;html=1;rounded=0;endFill=0;" edge="1" parent="K81uS18izymxrRsmIKyo-123">
          <mxGeometry width="50" height="50" relative="1" as="geometry">
            <mxPoint x="119.77999999999986" y="130" as="sourcePoint" />
            <mxPoint x="120" y="70" as="targetPoint" />
          </mxGeometry>
        </mxCell>
        <mxCell id="K81uS18izymxrRsmIKyo-111" value="" style="endArrow=oval;html=1;rounded=0;endFill=0;" edge="1" parent="K81uS18izymxrRsmIKyo-123">
          <mxGeometry width="50" height="50" relative="1" as="geometry">
            <mxPoint x="155.9999999999999" y="130" as="sourcePoint" />
            <mxPoint x="156" y="90" as="targetPoint" />
          </mxGeometry>
        </mxCell>
        <mxCell id="K81uS18izymxrRsmIKyo-112" value="idFicha &lt;b&gt;(pk)&lt;/b&gt;" style="text;html=1;align=center;verticalAlign=middle;whiteSpace=wrap;rounded=0;fontSize=10;" vertex="1" parent="K81uS18izymxrRsmIKyo-123">
          <mxGeometry x="20" width="60" height="20" as="geometry" />
        </mxCell>
        <mxCell id="K81uS18izymxrRsmIKyo-113" value="medicoCRM &lt;b&gt;(fk)&lt;/b&gt;" style="text;html=1;align=center;verticalAlign=middle;whiteSpace=wrap;rounded=0;fontSize=10;" vertex="1" parent="K81uS18izymxrRsmIKyo-123">
          <mxGeometry x="55.22000000000003" y="20" width="80" height="20" as="geometry" />
        </mxCell>
        <mxCell id="K81uS18izymxrRsmIKyo-114" value="consultaID&amp;nbsp;&lt;b&gt;(fk)&lt;/b&gt;" style="text;html=1;align=center;verticalAlign=middle;whiteSpace=wrap;rounded=0;fontSize=10;" vertex="1" parent="K81uS18izymxrRsmIKyo-123">
          <mxGeometry x="96" y="40" width="70" height="20" as="geometry" />
        </mxCell>
        <mxCell id="K81uS18izymxrRsmIKyo-115" value="pacienteID&amp;nbsp;&lt;b&gt;(fk)&lt;/b&gt;" style="text;html=1;align=center;verticalAlign=middle;whiteSpace=wrap;rounded=0;fontSize=10;" vertex="1" parent="K81uS18izymxrRsmIKyo-123">
          <mxGeometry x="130" y="60" width="70" height="20" as="geometry" />
        </mxCell>
        <mxCell id="K81uS18izymxrRsmIKyo-117" value="convenioID&amp;nbsp;&lt;b&gt;(fk)&lt;/b&gt;" style="text;html=1;align=center;verticalAlign=middle;whiteSpace=wrap;rounded=0;fontSize=10;" vertex="1" parent="K81uS18izymxrRsmIKyo-123">
          <mxGeometry x="166" y="80" width="70" height="20" as="geometry" />
        </mxCell>
        <mxCell id="K81uS18izymxrRsmIKyo-119" value="" style="endArrow=oval;html=1;rounded=0;endFill=0;" edge="1" parent="K81uS18izymxrRsmIKyo-123">
          <mxGeometry width="50" height="50" relative="1" as="geometry">
            <mxPoint x="190" y="130" as="sourcePoint" />
            <mxPoint x="190" y="110" as="targetPoint" />
          </mxGeometry>
        </mxCell>
        <mxCell id="K81uS18izymxrRsmIKyo-120" value="procedimento" style="text;html=1;align=center;verticalAlign=middle;whiteSpace=wrap;rounded=0;fontSize=10;" vertex="1" parent="K81uS18izymxrRsmIKyo-123">
          <mxGeometry x="200" y="100" width="60" height="20" as="geometry" />
        </mxCell>
        <mxCell id="K81uS18izymxrRsmIKyo-124" value="" style="group" vertex="1" connectable="0" parent="1">
          <mxGeometry x="916.8" y="98" width="120" height="130" as="geometry" />
        </mxCell>
        <mxCell id="K81uS18izymxrRsmIKyo-9" value="Consulta" style="rounded=0;whiteSpace=wrap;html=1;fontSize=20;" vertex="1" parent="K81uS18izymxrRsmIKyo-124">
          <mxGeometry y="70" width="120" height="60" as="geometry" />
        </mxCell>
        <mxCell id="K81uS18izymxrRsmIKyo-45" value="" style="endArrow=oval;html=1;rounded=0;endFill=1;" edge="1" parent="K81uS18izymxrRsmIKyo-124">
          <mxGeometry width="50" height="50" relative="1" as="geometry">
            <mxPoint x="20" y="70" as="sourcePoint" />
            <mxPoint x="20" y="10" as="targetPoint" />
          </mxGeometry>
        </mxCell>
        <mxCell id="K81uS18izymxrRsmIKyo-46" value="idConsulta (pk)" style="text;html=1;align=center;verticalAlign=middle;whiteSpace=wrap;rounded=0;fontSize=10;" vertex="1" parent="K81uS18izymxrRsmIKyo-124">
          <mxGeometry x="30" width="70" height="20" as="geometry" />
        </mxCell>
        <mxCell id="K81uS18izymxrRsmIKyo-47" value="" style="endArrow=oval;html=1;rounded=0;endFill=0;" edge="1" parent="K81uS18izymxrRsmIKyo-124">
          <mxGeometry width="50" height="50" relative="1" as="geometry">
            <mxPoint x="40" y="70" as="sourcePoint" />
            <mxPoint x="40" y="30" as="targetPoint" />
          </mxGeometry>
        </mxCell>
        <mxCell id="K81uS18izymxrRsmIKyo-48" value="data" style="text;html=1;align=center;verticalAlign=middle;whiteSpace=wrap;rounded=0;fontSize=10;" vertex="1" parent="K81uS18izymxrRsmIKyo-124">
          <mxGeometry x="50" y="20" width="20" height="20" as="geometry" />
        </mxCell>
        <mxCell id="K81uS18izymxrRsmIKyo-49" value="" style="endArrow=oval;html=1;rounded=0;endFill=0;" edge="1" parent="K81uS18izymxrRsmIKyo-124">
          <mxGeometry width="50" height="50" relative="1" as="geometry">
            <mxPoint x="60" y="70" as="sourcePoint" />
            <mxPoint x="60" y="50" as="targetPoint" />
          </mxGeometry>
        </mxCell>
        <mxCell id="K81uS18izymxrRsmIKyo-50" value="hora" style="text;html=1;align=center;verticalAlign=middle;whiteSpace=wrap;rounded=0;fontSize=10;" vertex="1" parent="K81uS18izymxrRsmIKyo-124">
          <mxGeometry x="70" y="40" width="20" height="20" as="geometry" />
        </mxCell>
        <mxCell id="K81uS18izymxrRsmIKyo-125" value="" style="group" vertex="1" connectable="0" parent="1">
          <mxGeometry x="908.5999999999999" y="608.45" width="229" height="170" as="geometry" />
        </mxCell>
        <mxCell id="K81uS18izymxrRsmIKyo-170" style="edgeStyle=orthogonalEdgeStyle;rounded=0;orthogonalLoop=1;jettySize=auto;html=1;endArrow=none;endFill=0;" edge="1" parent="K81uS18izymxrRsmIKyo-125" source="K81uS18izymxrRsmIKyo-8">
          <mxGeometry relative="1" as="geometry">
            <mxPoint x="-220" y="10" as="targetPoint" />
          </mxGeometry>
        </mxCell>
        <mxCell id="K81uS18izymxrRsmIKyo-8" value="Convênio" style="rounded=0;whiteSpace=wrap;html=1;fontSize=20;" vertex="1" parent="K81uS18izymxrRsmIKyo-125">
          <mxGeometry y="110" width="120" height="60" as="geometry" />
        </mxCell>
        <mxCell id="K81uS18izymxrRsmIKyo-83" value="" style="endArrow=oval;html=1;rounded=0;endFill=1;" edge="1" parent="K81uS18izymxrRsmIKyo-125">
          <mxGeometry width="50" height="50" relative="1" as="geometry">
            <mxPoint x="19.659999999999968" y="110" as="sourcePoint" />
            <mxPoint x="19.659999999999968" y="10" as="targetPoint" />
          </mxGeometry>
        </mxCell>
        <mxCell id="K81uS18izymxrRsmIKyo-84" value="" style="endArrow=oval;html=1;rounded=0;endFill=0;" edge="1" parent="K81uS18izymxrRsmIKyo-125">
          <mxGeometry width="50" height="50" relative="1" as="geometry">
            <mxPoint x="39.65999999999997" y="110" as="sourcePoint" />
            <mxPoint x="39.65999999999997" y="30" as="targetPoint" />
          </mxGeometry>
        </mxCell>
        <mxCell id="K81uS18izymxrRsmIKyo-85" value="" style="endArrow=oval;html=1;rounded=0;endFill=0;" edge="1" parent="K81uS18izymxrRsmIKyo-125">
          <mxGeometry width="50" height="50" relative="1" as="geometry">
            <mxPoint x="59.65999999999997" y="110" as="sourcePoint" />
            <mxPoint x="59.65999999999997" y="50" as="targetPoint" />
          </mxGeometry>
        </mxCell>
        <mxCell id="K81uS18izymxrRsmIKyo-86" value="" style="endArrow=oval;html=1;rounded=0;endFill=0;" edge="1" parent="K81uS18izymxrRsmIKyo-125">
          <mxGeometry width="50" height="50" relative="1" as="geometry">
            <mxPoint x="79.65999999999997" y="110" as="sourcePoint" />
            <mxPoint x="79.65999999999997" y="70" as="targetPoint" />
          </mxGeometry>
        </mxCell>
        <mxCell id="K81uS18izymxrRsmIKyo-87" value="" style="endArrow=oval;html=1;rounded=0;endFill=0;" edge="1" parent="K81uS18izymxrRsmIKyo-125">
          <mxGeometry width="50" height="50" relative="1" as="geometry">
            <mxPoint x="99.65999999999997" y="110" as="sourcePoint" />
            <mxPoint x="99.65999999999997" y="90" as="targetPoint" />
          </mxGeometry>
        </mxCell>
        <mxCell id="K81uS18izymxrRsmIKyo-88" value="idConvenio (pk)" style="text;html=1;align=center;verticalAlign=middle;whiteSpace=wrap;rounded=0;fontSize=10;" vertex="1" parent="K81uS18izymxrRsmIKyo-125">
          <mxGeometry x="27" width="80" height="20" as="geometry" />
        </mxCell>
        <mxCell id="K81uS18izymxrRsmIKyo-89" value="empresa" style="text;html=1;align=center;verticalAlign=middle;whiteSpace=wrap;rounded=0;fontSize=10;" vertex="1" parent="K81uS18izymxrRsmIKyo-125">
          <mxGeometry x="50" y="20" width="40" height="20" as="geometry" />
        </mxCell>
        <mxCell id="K81uS18izymxrRsmIKyo-90" value="tipo" style="text;html=1;align=center;verticalAlign=middle;whiteSpace=wrap;rounded=0;fontSize=10;" vertex="1" parent="K81uS18izymxrRsmIKyo-125">
          <mxGeometry x="69" y="40" width="20" height="20" as="geometry" />
        </mxCell>
        <mxCell id="K81uS18izymxrRsmIKyo-91" value="vencimento" style="text;html=1;align=center;verticalAlign=middle;whiteSpace=wrap;rounded=0;fontSize=10;" vertex="1" parent="K81uS18izymxrRsmIKyo-125">
          <mxGeometry x="85" y="60" width="60" height="20" as="geometry" />
        </mxCell>
        <mxCell id="K81uS18izymxrRsmIKyo-92" value="percentual_coparticipacao" style="text;html=1;align=center;verticalAlign=middle;whiteSpace=wrap;rounded=0;fontSize=10;" vertex="1" parent="K81uS18izymxrRsmIKyo-125">
          <mxGeometry x="109" y="80" width="120" height="20" as="geometry" />
        </mxCell>
        <mxCell id="K81uS18izymxrRsmIKyo-127" value="" style="group" vertex="1" connectable="0" parent="1">
          <mxGeometry x="53" y="48" width="286.2" height="243" as="geometry" />
        </mxCell>
        <mxCell id="K81uS18izymxrRsmIKyo-7" value="Médico" style="rounded=0;whiteSpace=wrap;html=1;fontSize=20;" vertex="1" parent="K81uS18izymxrRsmIKyo-127">
          <mxGeometry y="163.36" width="120" height="60" as="geometry" />
        </mxCell>
        <mxCell id="K81uS18izymxrRsmIKyo-11" value="" style="endArrow=oval;html=1;rounded=0;endFill=1;" edge="1" parent="K81uS18izymxrRsmIKyo-127">
          <mxGeometry width="50" height="50" relative="1" as="geometry">
            <mxPoint x="10" y="163.36" as="sourcePoint" />
            <mxPoint x="10" y="43.36" as="targetPoint" />
          </mxGeometry>
        </mxCell>
        <mxCell id="K81uS18izymxrRsmIKyo-13" value="CRM (pk)" style="text;html=1;align=center;verticalAlign=middle;whiteSpace=wrap;rounded=0;fontSize=10;" vertex="1" parent="K81uS18izymxrRsmIKyo-127">
          <mxGeometry x="14.5" y="33.36" width="53" height="20" as="geometry" />
        </mxCell>
        <mxCell id="K81uS18izymxrRsmIKyo-14" value="" style="endArrow=oval;html=1;rounded=0;endFill=0;" edge="1" parent="K81uS18izymxrRsmIKyo-127">
          <mxGeometry width="50" height="50" relative="1" as="geometry">
            <mxPoint x="30" y="163.36" as="sourcePoint" />
            <mxPoint x="30" y="63.36" as="targetPoint" />
          </mxGeometry>
        </mxCell>
        <mxCell id="K81uS18izymxrRsmIKyo-15" value="especialidade" style="text;html=1;align=center;verticalAlign=middle;whiteSpace=wrap;rounded=0;fontSize=10;" vertex="1" parent="K81uS18izymxrRsmIKyo-127">
          <mxGeometry x="40" y="53.36" width="62" height="20" as="geometry" />
        </mxCell>
        <mxCell id="K81uS18izymxrRsmIKyo-16" value="" style="endArrow=oval;html=1;rounded=0;endFill=0;" edge="1" parent="K81uS18izymxrRsmIKyo-127">
          <mxGeometry width="50" height="50" relative="1" as="geometry">
            <mxPoint x="50" y="163.36" as="sourcePoint" />
            <mxPoint x="50" y="83.36000000000001" as="targetPoint" />
          </mxGeometry>
        </mxCell>
        <mxCell id="K81uS18izymxrRsmIKyo-17" value="nome" style="text;html=1;align=center;verticalAlign=middle;whiteSpace=wrap;rounded=0;fontSize=10;" vertex="1" parent="K81uS18izymxrRsmIKyo-127">
          <mxGeometry x="59.75" y="73.36000000000001" width="22.5" height="20" as="geometry" />
        </mxCell>
        <mxCell id="K81uS18izymxrRsmIKyo-18" value="" style="endArrow=oval;html=1;rounded=0;endFill=0;" edge="1" parent="K81uS18izymxrRsmIKyo-127">
          <mxGeometry width="50" height="50" relative="1" as="geometry">
            <mxPoint x="70" y="163.36" as="sourcePoint" />
            <mxPoint x="70" y="103.36000000000001" as="targetPoint" />
          </mxGeometry>
        </mxCell>
        <mxCell id="K81uS18izymxrRsmIKyo-19" value="telefone" style="text;html=1;align=center;verticalAlign=middle;whiteSpace=wrap;rounded=0;fontSize=10;" vertex="1" parent="K81uS18izymxrRsmIKyo-127">
          <mxGeometry x="78" y="93.36000000000001" width="40" height="20" as="geometry" />
        </mxCell>
        <mxCell id="K81uS18izymxrRsmIKyo-20" value="" style="endArrow=oval;html=1;rounded=0;endFill=0;" edge="1" parent="K81uS18izymxrRsmIKyo-127">
          <mxGeometry width="50" height="50" relative="1" as="geometry">
            <mxPoint x="90" y="163.36" as="sourcePoint" />
            <mxPoint x="90" y="123.36000000000001" as="targetPoint" />
          </mxGeometry>
        </mxCell>
        <mxCell id="K81uS18izymxrRsmIKyo-21" value="email" style="text;html=1;align=center;verticalAlign=middle;whiteSpace=wrap;rounded=0;fontSize=10;" vertex="1" parent="K81uS18izymxrRsmIKyo-127">
          <mxGeometry x="98" y="113.36000000000001" width="30" height="20" as="geometry" />
        </mxCell>
        <mxCell id="K81uS18izymxrRsmIKyo-22" value="" style="endArrow=oval;html=1;rounded=0;endFill=0;" edge="1" parent="K81uS18izymxrRsmIKyo-127">
          <mxGeometry width="50" height="50" relative="1" as="geometry">
            <mxPoint x="110" y="163.36" as="sourcePoint" />
            <mxPoint x="110" y="143.36" as="targetPoint" />
          </mxGeometry>
        </mxCell>
        <mxCell id="K81uS18izymxrRsmIKyo-23" value="endereco" style="text;html=1;align=center;verticalAlign=middle;whiteSpace=wrap;rounded=0;fontSize=10;" vertex="1" parent="K81uS18izymxrRsmIKyo-127">
          <mxGeometry x="118" y="133.36" width="50" height="20" as="geometry" />
        </mxCell>
        <mxCell id="K81uS18izymxrRsmIKyo-24" value="" style="endArrow=none;html=1;rounded=0;endFill=0;exitX=0.996;exitY=0.668;exitDx=0;exitDy=0;exitPerimeter=0;" edge="1" parent="K81uS18izymxrRsmIKyo-127">
          <mxGeometry width="50" height="50" relative="1" as="geometry">
            <mxPoint x="177.99999999999994" y="144.35999999999996" as="sourcePoint" />
            <mxPoint x="178.2" y="11" as="targetPoint" />
          </mxGeometry>
        </mxCell>
        <mxCell id="K81uS18izymxrRsmIKyo-25" value="" style="endArrow=oval;html=1;rounded=0;endFill=0;" edge="1" parent="K81uS18izymxrRsmIKyo-127">
          <mxGeometry width="50" height="50" relative="1" as="geometry">
            <mxPoint x="178.2" y="10.829999999999998" as="sourcePoint" />
            <mxPoint x="208.2" y="10.829999999999998" as="targetPoint" />
          </mxGeometry>
        </mxCell>
        <mxCell id="K81uS18izymxrRsmIKyo-27" value="" style="endArrow=oval;html=1;rounded=0;endFill=0;" edge="1" parent="K81uS18izymxrRsmIKyo-127">
          <mxGeometry width="50" height="50" relative="1" as="geometry">
            <mxPoint x="178.2" y="30.83" as="sourcePoint" />
            <mxPoint x="208.2" y="30.83" as="targetPoint" />
          </mxGeometry>
        </mxCell>
        <mxCell id="K81uS18izymxrRsmIKyo-29" value="" style="endArrow=oval;html=1;rounded=0;endFill=0;" edge="1" parent="K81uS18izymxrRsmIKyo-127">
          <mxGeometry width="50" height="50" relative="1" as="geometry">
            <mxPoint x="178.2" y="50.83" as="sourcePoint" />
            <mxPoint x="208.2" y="50.83" as="targetPoint" />
          </mxGeometry>
        </mxCell>
        <mxCell id="K81uS18izymxrRsmIKyo-31" value="" style="endArrow=oval;html=1;rounded=0;endFill=0;" edge="1" parent="K81uS18izymxrRsmIKyo-127">
          <mxGeometry width="50" height="50" relative="1" as="geometry">
            <mxPoint x="180.2" y="69.82999999999998" as="sourcePoint" />
            <mxPoint x="210.2" y="69.82999999999998" as="targetPoint" />
          </mxGeometry>
        </mxCell>
        <mxCell id="K81uS18izymxrRsmIKyo-33" value="" style="endArrow=oval;html=1;rounded=0;endFill=0;" edge="1" parent="K81uS18izymxrRsmIKyo-127">
          <mxGeometry width="50" height="50" relative="1" as="geometry">
            <mxPoint x="178.2" y="90.83000000000001" as="sourcePoint" />
            <mxPoint x="208.2" y="90.83000000000001" as="targetPoint" />
          </mxGeometry>
        </mxCell>
        <mxCell id="K81uS18izymxrRsmIKyo-35" value="" style="endArrow=oval;html=1;rounded=0;endFill=0;" edge="1" parent="K81uS18izymxrRsmIKyo-127">
          <mxGeometry width="50" height="50" relative="1" as="geometry">
            <mxPoint x="178.2" y="110.64999999999998" as="sourcePoint" />
            <mxPoint x="208.2" y="110.64999999999998" as="targetPoint" />
          </mxGeometry>
        </mxCell>
        <mxCell id="K81uS18izymxrRsmIKyo-36" value="" style="endArrow=oval;html=1;rounded=0;endFill=0;" edge="1" parent="K81uS18izymxrRsmIKyo-127">
          <mxGeometry width="50" height="50" relative="1" as="geometry">
            <mxPoint x="178.2" y="130.64999999999998" as="sourcePoint" />
            <mxPoint x="208.2" y="130.64999999999998" as="targetPoint" />
          </mxGeometry>
        </mxCell>
        <mxCell id="K81uS18izymxrRsmIKyo-37" value="rua" style="text;html=1;align=left;verticalAlign=middle;whiteSpace=wrap;rounded=0;fontSize=10;" vertex="1" parent="K81uS18izymxrRsmIKyo-127">
          <mxGeometry x="216.2" width="70" height="20" as="geometry" />
        </mxCell>
        <mxCell id="K81uS18izymxrRsmIKyo-38" value="numero" style="text;html=1;align=left;verticalAlign=middle;whiteSpace=wrap;rounded=0;fontSize=10;" vertex="1" parent="K81uS18izymxrRsmIKyo-127">
          <mxGeometry x="216.2" y="20" width="70" height="20" as="geometry" />
        </mxCell>
        <mxCell id="K81uS18izymxrRsmIKyo-39" value="complemento" style="text;html=1;align=left;verticalAlign=middle;whiteSpace=wrap;rounded=0;fontSize=10;" vertex="1" parent="K81uS18izymxrRsmIKyo-127">
          <mxGeometry x="216.2" y="40" width="70" height="20" as="geometry" />
        </mxCell>
        <mxCell id="K81uS18izymxrRsmIKyo-40" value="bairro" style="text;html=1;align=left;verticalAlign=middle;whiteSpace=wrap;rounded=0;fontSize=10;" vertex="1" parent="K81uS18izymxrRsmIKyo-127">
          <mxGeometry x="216.2" y="60" width="70" height="20" as="geometry" />
        </mxCell>
        <mxCell id="K81uS18izymxrRsmIKyo-41" value="cep" style="text;html=1;align=left;verticalAlign=middle;whiteSpace=wrap;rounded=0;fontSize=10;" vertex="1" parent="K81uS18izymxrRsmIKyo-127">
          <mxGeometry x="216.2" y="80" width="70" height="20" as="geometry" />
        </mxCell>
        <mxCell id="K81uS18izymxrRsmIKyo-42" value="cidade" style="text;html=1;align=left;verticalAlign=middle;whiteSpace=wrap;rounded=0;fontSize=10;" vertex="1" parent="K81uS18izymxrRsmIKyo-127">
          <mxGeometry x="216.2" y="100" width="70" height="20" as="geometry" />
        </mxCell>
        <mxCell id="K81uS18izymxrRsmIKyo-43" value="estado" style="text;html=1;align=left;verticalAlign=middle;whiteSpace=wrap;rounded=0;fontSize=10;" vertex="1" parent="K81uS18izymxrRsmIKyo-127">
          <mxGeometry x="216.2" y="120" width="70" height="20" as="geometry" />
        </mxCell>
        <mxCell id="K81uS18izymxrRsmIKyo-44" value="" style="endArrow=none;html=1;rounded=0;" edge="1" parent="K81uS18izymxrRsmIKyo-127">
          <mxGeometry width="50" height="50" relative="1" as="geometry">
            <mxPoint x="168" y="144.36" as="sourcePoint" />
            <mxPoint x="178" y="144.36" as="targetPoint" />
          </mxGeometry>
        </mxCell>
        <mxCell id="K81uS18izymxrRsmIKyo-121" value="preenche" style="rhombus;whiteSpace=wrap;html=1;" vertex="1" parent="1">
          <mxGeometry x="297.7" y="286" width="80" height="50" as="geometry" />
        </mxCell>
        <mxCell id="K81uS18izymxrRsmIKyo-137" style="edgeStyle=orthogonalEdgeStyle;rounded=0;orthogonalLoop=1;jettySize=auto;html=1;entryX=0.25;entryY=1;entryDx=0;entryDy=0;endArrow=none;endFill=0;" edge="1" parent="1">
          <mxGeometry relative="1" as="geometry">
            <mxPoint x="548.9294871794872" y="581.3931623931625" as="sourcePoint" />
            <mxPoint x="548.9499999999999" y="398" as="targetPoint" />
            <Array as="points">
              <mxPoint x="548.9499999999999" y="491" />
            </Array>
          </mxGeometry>
        </mxCell>
        <mxCell id="K81uS18izymxrRsmIKyo-132" value="pertence" style="rhombus;whiteSpace=wrap;html=1;" vertex="1" parent="1">
          <mxGeometry x="489.15000000000003" y="577.45" width="120" height="40" as="geometry" />
        </mxCell>
        <mxCell id="K81uS18izymxrRsmIKyo-172" style="edgeStyle=orthogonalEdgeStyle;rounded=0;orthogonalLoop=1;jettySize=auto;html=1;endArrow=none;endFill=0;" edge="1" parent="1" source="K81uS18izymxrRsmIKyo-141">
          <mxGeometry relative="1" as="geometry">
            <mxPoint x="687.8" y="398.0005617977528" as="targetPoint" />
          </mxGeometry>
        </mxCell>
        <mxCell id="K81uS18izymxrRsmIKyo-141" value="possui" style="rhombus;whiteSpace=wrap;html=1;" vertex="1" parent="1">
          <mxGeometry x="627.8" y="577.45" width="120" height="40" as="geometry" />
        </mxCell>
        <mxCell id="K81uS18izymxrRsmIKyo-145" value="&lt;span style=&quot;font-size: 10px;&quot;&gt;&lt;b&gt;n : 1&lt;/b&gt;&lt;/span&gt;" style="text;whiteSpace=wrap;html=1;align=center;" vertex="1" parent="1">
          <mxGeometry x="748.8" y="583.45" width="30" height="30" as="geometry" />
        </mxCell>
        <mxCell id="K81uS18izymxrRsmIKyo-183" style="edgeStyle=orthogonalEdgeStyle;rounded=0;orthogonalLoop=1;jettySize=auto;html=1;endArrow=none;endFill=0;" edge="1" parent="1" source="K81uS18izymxrRsmIKyo-146">
          <mxGeometry relative="1" as="geometry">
            <mxPoint x="977.8" y="228" as="targetPoint" />
          </mxGeometry>
        </mxCell>
        <mxCell id="K81uS18izymxrRsmIKyo-146" value="corresponde" style="rhombus;whiteSpace=wrap;html=1;" vertex="1" parent="1">
          <mxGeometry x="807.8" y="346" width="120" height="46" as="geometry" />
        </mxCell>
        <mxCell id="K81uS18izymxrRsmIKyo-153" value="&lt;span style=&quot;font-size: 10px;&quot;&gt;&lt;b&gt;1 : 1&lt;/b&gt;&lt;/span&gt;" style="text;whiteSpace=wrap;html=1;align=center;" vertex="1" parent="1">
          <mxGeometry x="853.8" y="388" width="30" height="30" as="geometry" />
        </mxCell>
        <mxCell id="K81uS18izymxrRsmIKyo-156" style="edgeStyle=orthogonalEdgeStyle;rounded=0;orthogonalLoop=1;jettySize=auto;html=1;entryX=0.5;entryY=0;entryDx=0;entryDy=0;endArrow=none;endFill=0;" edge="1" parent="1" source="K81uS18izymxrRsmIKyo-7" target="K81uS18izymxrRsmIKyo-121">
          <mxGeometry relative="1" as="geometry" />
        </mxCell>
        <mxCell id="K81uS18izymxrRsmIKyo-171" style="edgeStyle=orthogonalEdgeStyle;rounded=0;orthogonalLoop=1;jettySize=auto;html=1;entryX=0.5;entryY=1;entryDx=0;entryDy=0;endArrow=none;endFill=0;" edge="1" parent="1" source="K81uS18izymxrRsmIKyo-10" target="K81uS18izymxrRsmIKyo-132">
          <mxGeometry relative="1" as="geometry">
            <mxPoint x="549.15" y="630" as="targetPoint" />
          </mxGeometry>
        </mxCell>
        <mxCell id="K81uS18izymxrRsmIKyo-201" style="edgeStyle=orthogonalEdgeStyle;rounded=0;orthogonalLoop=1;jettySize=auto;html=1;endArrow=none;endFill=0;entryX=0.5;entryY=1;entryDx=0;entryDy=0;" edge="1" parent="1" source="K81uS18izymxrRsmIKyo-10" target="K81uS18izymxrRsmIKyo-200">
          <mxGeometry relative="1" as="geometry">
            <mxPoint x="120" y="700" as="targetPoint" />
          </mxGeometry>
        </mxCell>
        <mxCell id="K81uS18izymxrRsmIKyo-10" value="Paciente" style="rounded=0;whiteSpace=wrap;html=1;fontSize=20;" vertex="1" parent="1">
          <mxGeometry x="179.14999999999998" y="719.76" width="120" height="60" as="geometry" />
        </mxCell>
        <mxCell id="K81uS18izymxrRsmIKyo-56" value="cpf (pk)" style="text;html=1;align=center;verticalAlign=middle;whiteSpace=wrap;rounded=0;fontSize=10;" vertex="1" parent="1">
          <mxGeometry x="196.45000000000005" y="613.76" width="40" height="20" as="geometry" />
        </mxCell>
        <mxCell id="K81uS18izymxrRsmIKyo-58" value="" style="endArrow=oval;html=1;rounded=0;endFill=1;" edge="1" parent="1">
          <mxGeometry width="50" height="50" relative="1" as="geometry">
            <mxPoint x="189.15000000000003" y="719.76" as="sourcePoint" />
            <mxPoint x="188.95000000000005" y="623.76" as="targetPoint" />
          </mxGeometry>
        </mxCell>
        <mxCell id="K81uS18izymxrRsmIKyo-59" value="" style="endArrow=oval;html=1;rounded=0;endFill=0;" edge="1" parent="1">
          <mxGeometry width="50" height="50" relative="1" as="geometry">
            <mxPoint x="209.15000000000003" y="719.76" as="sourcePoint" />
            <mxPoint x="208.95000000000005" y="643.76" as="targetPoint" />
          </mxGeometry>
        </mxCell>
        <mxCell id="K81uS18izymxrRsmIKyo-60" value="" style="endArrow=oval;html=1;rounded=0;endFill=0;" edge="1" parent="1">
          <mxGeometry width="50" height="50" relative="1" as="geometry">
            <mxPoint x="229.15000000000003" y="719.76" as="sourcePoint" />
            <mxPoint x="228.95000000000005" y="663.76" as="targetPoint" />
          </mxGeometry>
        </mxCell>
        <mxCell id="K81uS18izymxrRsmIKyo-61" value="" style="endArrow=oval;html=1;rounded=0;endFill=0;" edge="1" parent="1">
          <mxGeometry width="50" height="50" relative="1" as="geometry">
            <mxPoint x="249.15000000000003" y="719.76" as="sourcePoint" />
            <mxPoint x="248.95000000000005" y="683.76" as="targetPoint" />
          </mxGeometry>
        </mxCell>
        <mxCell id="K81uS18izymxrRsmIKyo-62" value="" style="endArrow=oval;html=1;rounded=0;endFill=0;" edge="1" parent="1">
          <mxGeometry width="50" height="50" relative="1" as="geometry">
            <mxPoint x="269.15000000000003" y="719.76" as="sourcePoint" />
            <mxPoint x="268.95000000000005" y="703.76" as="targetPoint" />
          </mxGeometry>
        </mxCell>
        <mxCell id="K81uS18izymxrRsmIKyo-63" value="nome" style="text;html=1;align=center;verticalAlign=middle;whiteSpace=wrap;rounded=0;fontSize=10;" vertex="1" parent="1">
          <mxGeometry x="218.95000000000005" y="633.76" width="30" height="20" as="geometry" />
        </mxCell>
        <mxCell id="K81uS18izymxrRsmIKyo-64" value="telefone" style="text;html=1;align=center;verticalAlign=middle;whiteSpace=wrap;rounded=0;fontSize=10;" vertex="1" parent="1">
          <mxGeometry x="236.45000000000005" y="653.76" width="42.5" height="20" as="geometry" />
        </mxCell>
        <mxCell id="K81uS18izymxrRsmIKyo-65" value="e-mail" style="text;html=1;align=center;verticalAlign=middle;whiteSpace=wrap;rounded=0;fontSize=10;" vertex="1" parent="1">
          <mxGeometry x="256.45000000000005" y="673.76" width="32.5" height="20" as="geometry" />
        </mxCell>
        <mxCell id="K81uS18izymxrRsmIKyo-66" value="endereco" style="text;html=1;align=center;verticalAlign=middle;whiteSpace=wrap;rounded=0;fontSize=10;" vertex="1" parent="1">
          <mxGeometry x="278.95000000000005" y="693.76" width="50" height="20" as="geometry" />
        </mxCell>
        <mxCell id="K81uS18izymxrRsmIKyo-67" value="" style="endArrow=none;html=1;rounded=0;endFill=0;exitX=0.996;exitY=0.668;exitDx=0;exitDy=0;exitPerimeter=0;" edge="1" parent="1">
          <mxGeometry width="50" height="50" relative="1" as="geometry">
            <mxPoint x="338.95" y="703.53" as="sourcePoint" />
            <mxPoint x="339.15000000000003" y="590" as="targetPoint" />
          </mxGeometry>
        </mxCell>
        <mxCell id="K81uS18izymxrRsmIKyo-68" value="" style="endArrow=oval;html=1;rounded=0;endFill=0;" edge="1" parent="1">
          <mxGeometry width="50" height="50" relative="1" as="geometry">
            <mxPoint x="339.15000000000003" y="589.75" as="sourcePoint" />
            <mxPoint x="369.15000000000003" y="589.75" as="targetPoint" />
          </mxGeometry>
        </mxCell>
        <mxCell id="K81uS18izymxrRsmIKyo-69" value="" style="endArrow=oval;html=1;rounded=0;endFill=0;" edge="1" parent="1">
          <mxGeometry width="50" height="50" relative="1" as="geometry">
            <mxPoint x="339.15000000000003" y="610" as="sourcePoint" />
            <mxPoint x="369.15000000000003" y="610" as="targetPoint" />
          </mxGeometry>
        </mxCell>
        <mxCell id="K81uS18izymxrRsmIKyo-70" value="" style="endArrow=oval;html=1;rounded=0;endFill=0;" edge="1" parent="1">
          <mxGeometry width="50" height="50" relative="1" as="geometry">
            <mxPoint x="339.15000000000003" y="632.87" as="sourcePoint" />
            <mxPoint x="369.15000000000003" y="632.87" as="targetPoint" />
          </mxGeometry>
        </mxCell>
        <mxCell id="K81uS18izymxrRsmIKyo-71" value="" style="endArrow=oval;html=1;rounded=0;endFill=0;" edge="1" parent="1">
          <mxGeometry width="50" height="50" relative="1" as="geometry">
            <mxPoint x="339.15000000000003" y="653.76" as="sourcePoint" />
            <mxPoint x="369.15000000000003" y="653.76" as="targetPoint" />
          </mxGeometry>
        </mxCell>
        <mxCell id="K81uS18izymxrRsmIKyo-72" value="" style="endArrow=oval;html=1;rounded=0;endFill=0;" edge="1" parent="1">
          <mxGeometry width="50" height="50" relative="1" as="geometry">
            <mxPoint x="339.15000000000003" y="673.26" as="sourcePoint" />
            <mxPoint x="369.15000000000003" y="673.26" as="targetPoint" />
          </mxGeometry>
        </mxCell>
        <mxCell id="K81uS18izymxrRsmIKyo-73" value="" style="endArrow=oval;html=1;rounded=0;endFill=0;" edge="1" parent="1">
          <mxGeometry width="50" height="50" relative="1" as="geometry">
            <mxPoint x="339.15000000000003" y="694.7499999999999" as="sourcePoint" />
            <mxPoint x="369.15000000000003" y="694.7499999999999" as="targetPoint" />
          </mxGeometry>
        </mxCell>
        <mxCell id="K81uS18izymxrRsmIKyo-82" value="" style="endArrow=none;html=1;rounded=0;" edge="1" parent="1">
          <mxGeometry width="50" height="50" relative="1" as="geometry">
            <mxPoint x="328.95000000000005" y="703.53" as="sourcePoint" />
            <mxPoint x="338.95000000000005" y="703.53" as="targetPoint" />
          </mxGeometry>
        </mxCell>
        <mxCell id="K81uS18izymxrRsmIKyo-138" value="&lt;span style=&quot;font-size: 10px;&quot;&gt;&lt;b&gt;1 : n&lt;/b&gt;&lt;/span&gt;" style="text;whiteSpace=wrap;html=1;align=center;" vertex="1" parent="1">
          <mxGeometry x="457.15000000000003" y="582.76" width="30" height="30" as="geometry" />
        </mxCell>
        <mxCell id="K81uS18izymxrRsmIKyo-75" value="rua" style="text;html=1;align=left;verticalAlign=middle;whiteSpace=wrap;rounded=0;fontSize=10;" vertex="1" parent="1">
          <mxGeometry x="377.70000000000005" y="600" width="70" height="20" as="geometry" />
        </mxCell>
        <mxCell id="K81uS18izymxrRsmIKyo-76" value="numero" style="text;html=1;align=left;verticalAlign=middle;whiteSpace=wrap;rounded=0;fontSize=10;" vertex="1" parent="1">
          <mxGeometry x="377.70000000000005" y="620" width="70" height="20" as="geometry" />
        </mxCell>
        <mxCell id="K81uS18izymxrRsmIKyo-77" value="complemento" style="text;html=1;align=left;verticalAlign=middle;whiteSpace=wrap;rounded=0;fontSize=10;" vertex="1" parent="1">
          <mxGeometry x="377.70000000000005" y="643" width="70" height="20" as="geometry" />
        </mxCell>
        <mxCell id="K81uS18izymxrRsmIKyo-78" value="bairro" style="text;html=1;align=left;verticalAlign=middle;whiteSpace=wrap;rounded=0;fontSize=10;" vertex="1" parent="1">
          <mxGeometry x="378.70000000000005" y="663.76" width="70" height="20" as="geometry" />
        </mxCell>
        <mxCell id="K81uS18izymxrRsmIKyo-79" value="cep" style="text;html=1;align=left;verticalAlign=middle;whiteSpace=wrap;rounded=0;fontSize=10;" vertex="1" parent="1">
          <mxGeometry x="378.70000000000005" y="684.76" width="70" height="20" as="geometry" />
        </mxCell>
        <mxCell id="K81uS18izymxrRsmIKyo-80" value="cidadeID &lt;b&gt;(fk)&lt;/b&gt;" style="text;html=1;align=left;verticalAlign=middle;whiteSpace=wrap;rounded=0;fontSize=10;" vertex="1" parent="1">
          <mxGeometry x="377.70000000000005" y="580" width="69" height="20" as="geometry" />
        </mxCell>
        <mxCell id="K81uS18izymxrRsmIKyo-181" style="edgeStyle=orthogonalEdgeStyle;rounded=0;orthogonalLoop=1;jettySize=auto;html=1;entryX=0;entryY=0.5;entryDx=0;entryDy=0;endArrow=none;endFill=0;" edge="1" parent="1" source="K81uS18izymxrRsmIKyo-104" target="K81uS18izymxrRsmIKyo-146">
          <mxGeometry relative="1" as="geometry">
            <Array as="points">
              <mxPoint x="740" y="369" />
              <mxPoint x="740" y="369" />
            </Array>
          </mxGeometry>
        </mxCell>
        <mxCell id="K81uS18izymxrRsmIKyo-184" value="" style="group" vertex="1" connectable="0" parent="1">
          <mxGeometry x="377.15" y="400" width="130" height="141" as="geometry" />
        </mxCell>
        <mxCell id="K81uS18izymxrRsmIKyo-173" value="Estado" style="rounded=0;whiteSpace=wrap;html=1;fontSize=20;" vertex="1" parent="K81uS18izymxrRsmIKyo-184">
          <mxGeometry y="81" width="120" height="60" as="geometry" />
        </mxCell>
        <mxCell id="K81uS18izymxrRsmIKyo-174" value="id&amp;nbsp;&lt;b&gt;(pk)&lt;/b&gt;" style="text;html=1;align=center;verticalAlign=middle;whiteSpace=wrap;rounded=0;fontSize=10;" vertex="1" parent="K81uS18izymxrRsmIKyo-184">
          <mxGeometry x="37.19999999999999" width="33.95" height="20" as="geometry" />
        </mxCell>
        <mxCell id="K81uS18izymxrRsmIKyo-175" value="" style="endArrow=oval;html=1;rounded=0;endFill=1;" edge="1" parent="K81uS18izymxrRsmIKyo-184">
          <mxGeometry width="50" height="50" relative="1" as="geometry">
            <mxPoint x="28.850000000000023" y="81" as="sourcePoint" />
            <mxPoint x="29.149999999999977" y="10" as="targetPoint" />
          </mxGeometry>
        </mxCell>
        <mxCell id="K81uS18izymxrRsmIKyo-176" value="" style="endArrow=oval;html=1;rounded=0;endFill=0;exitX=0.5;exitY=0;exitDx=0;exitDy=0;" edge="1" parent="K81uS18izymxrRsmIKyo-184">
          <mxGeometry width="50" height="50" relative="1" as="geometry">
            <mxPoint x="61.14999999999998" y="81" as="sourcePoint" />
            <mxPoint x="61.14999999999998" y="34" as="targetPoint" />
          </mxGeometry>
        </mxCell>
        <mxCell id="K81uS18izymxrRsmIKyo-177" value="descricao" style="text;html=1;align=center;verticalAlign=middle;whiteSpace=wrap;rounded=0;fontSize=10;" vertex="1" parent="K81uS18izymxrRsmIKyo-184">
          <mxGeometry x="71.14999999999998" y="24" width="48.85" height="20" as="geometry" />
        </mxCell>
        <mxCell id="K81uS18izymxrRsmIKyo-178" value="" style="endArrow=oval;html=1;rounded=0;endFill=0;" edge="1" parent="K81uS18izymxrRsmIKyo-184">
          <mxGeometry width="50" height="50" relative="1" as="geometry">
            <mxPoint x="92.5" y="80" as="sourcePoint" />
            <mxPoint x="92.5" y="54" as="targetPoint" />
          </mxGeometry>
        </mxCell>
        <mxCell id="K81uS18izymxrRsmIKyo-179" value="sigla" style="text;html=1;align=center;verticalAlign=middle;whiteSpace=wrap;rounded=0;fontSize=10;" vertex="1" parent="K81uS18izymxrRsmIKyo-184">
          <mxGeometry x="102.5" y="44" width="27.5" height="20" as="geometry" />
        </mxCell>
        <mxCell id="K81uS18izymxrRsmIKyo-185" value="" style="group" vertex="1" connectable="0" parent="1">
          <mxGeometry x="101" y="400" width="163.85000000000002" height="141" as="geometry" />
        </mxCell>
        <mxCell id="K81uS18izymxrRsmIKyo-162" value="Cidade" style="rounded=0;whiteSpace=wrap;html=1;fontSize=20;" vertex="1" parent="K81uS18izymxrRsmIKyo-185">
          <mxGeometry y="81" width="120" height="60" as="geometry" />
        </mxCell>
        <mxCell id="K81uS18izymxrRsmIKyo-164" value="id&amp;nbsp;&lt;b&gt;(pk)&lt;/b&gt;" style="text;html=1;align=center;verticalAlign=middle;whiteSpace=wrap;rounded=0;fontSize=10;" vertex="1" parent="K81uS18izymxrRsmIKyo-185">
          <mxGeometry x="37.19999999999999" width="33.95" height="20" as="geometry" />
        </mxCell>
        <mxCell id="K81uS18izymxrRsmIKyo-165" value="" style="endArrow=oval;html=1;rounded=0;endFill=1;" edge="1" parent="K81uS18izymxrRsmIKyo-185">
          <mxGeometry width="50" height="50" relative="1" as="geometry">
            <mxPoint x="28.849999999999994" y="81" as="sourcePoint" />
            <mxPoint x="29.149999999999977" y="10" as="targetPoint" />
          </mxGeometry>
        </mxCell>
        <mxCell id="K81uS18izymxrRsmIKyo-166" value="" style="endArrow=oval;html=1;rounded=0;endFill=0;exitX=0.5;exitY=0;exitDx=0;exitDy=0;" edge="1" parent="K81uS18izymxrRsmIKyo-185">
          <mxGeometry width="50" height="50" relative="1" as="geometry">
            <mxPoint x="61.14999999999995" y="81" as="sourcePoint" />
            <mxPoint x="61.150000000000006" y="34" as="targetPoint" />
          </mxGeometry>
        </mxCell>
        <mxCell id="K81uS18izymxrRsmIKyo-167" value="estadoID &lt;b&gt;(fk)&lt;/b&gt;" style="text;html=1;align=center;verticalAlign=middle;whiteSpace=wrap;rounded=0;fontSize=10;" vertex="1" parent="K81uS18izymxrRsmIKyo-185">
          <mxGeometry x="71.14999999999999" y="24" width="62.7" height="20" as="geometry" />
        </mxCell>
        <mxCell id="K81uS18izymxrRsmIKyo-168" value="" style="endArrow=oval;html=1;rounded=0;endFill=0;" edge="1" parent="K81uS18izymxrRsmIKyo-185">
          <mxGeometry width="50" height="50" relative="1" as="geometry">
            <mxPoint x="92.50000000000001" y="80" as="sourcePoint" />
            <mxPoint x="92.50000000000001" y="54" as="targetPoint" />
          </mxGeometry>
        </mxCell>
        <mxCell id="K81uS18izymxrRsmIKyo-169" value="descricao" style="text;html=1;align=center;verticalAlign=middle;whiteSpace=wrap;rounded=0;fontSize=10;" vertex="1" parent="K81uS18izymxrRsmIKyo-185">
          <mxGeometry x="102.50000000000001" y="44" width="50" height="20" as="geometry" />
        </mxCell>
        <mxCell id="K81uS18izymxrRsmIKyo-187" style="edgeStyle=orthogonalEdgeStyle;rounded=0;orthogonalLoop=1;jettySize=auto;html=1;endArrow=none;endFill=0;entryX=-0.005;entryY=0.474;entryDx=0;entryDy=0;entryPerimeter=0;" edge="1" parent="1" source="K81uS18izymxrRsmIKyo-186" target="K81uS18izymxrRsmIKyo-173">
          <mxGeometry relative="1" as="geometry">
            <mxPoint x="381" y="509.5" as="targetPoint" />
          </mxGeometry>
        </mxCell>
        <mxCell id="K81uS18izymxrRsmIKyo-189" style="edgeStyle=orthogonalEdgeStyle;rounded=0;orthogonalLoop=1;jettySize=auto;html=1;endArrow=none;endFill=0;entryX=0.998;entryY=0.475;entryDx=0;entryDy=0;entryPerimeter=0;" edge="1" parent="1" source="K81uS18izymxrRsmIKyo-186" target="K81uS18izymxrRsmIKyo-162">
          <mxGeometry relative="1" as="geometry">
            <mxPoint x="181" y="509.5" as="targetPoint" />
          </mxGeometry>
        </mxCell>
        <mxCell id="K81uS18izymxrRsmIKyo-186" value="pertence" style="rhombus;whiteSpace=wrap;html=1;" vertex="1" parent="1">
          <mxGeometry x="260.7" y="482" width="80" height="55" as="geometry" />
        </mxCell>
        <mxCell id="K81uS18izymxrRsmIKyo-190" value="&lt;span style=&quot;font-size: 10px;&quot;&gt;&lt;span&gt;n : 1&lt;/span&gt;&lt;/span&gt;" style="text;whiteSpace=wrap;html=1;align=center;fontStyle=1" vertex="1" parent="1">
          <mxGeometry x="285.7" y="532" width="30" height="30" as="geometry" />
        </mxCell>
        <mxCell id="K81uS18izymxrRsmIKyo-192" style="edgeStyle=orthogonalEdgeStyle;rounded=0;orthogonalLoop=1;jettySize=auto;html=1;entryX=0.5;entryY=1;entryDx=0;entryDy=0;endArrow=none;endFill=0;" edge="1" parent="1" source="K81uS18izymxrRsmIKyo-104" target="K81uS18izymxrRsmIKyo-121">
          <mxGeometry relative="1" as="geometry" />
        </mxCell>
        <mxCell id="K81uS18izymxrRsmIKyo-194" style="edgeStyle=orthogonalEdgeStyle;rounded=0;orthogonalLoop=1;jettySize=auto;html=1;entryX=0;entryY=0.5;entryDx=0;entryDy=0;endArrow=none;endFill=0;" edge="1" parent="1" source="K81uS18izymxrRsmIKyo-193" target="K81uS18izymxrRsmIKyo-162">
          <mxGeometry relative="1" as="geometry" />
        </mxCell>
        <mxCell id="K81uS18izymxrRsmIKyo-193" value="reside" style="rhombus;whiteSpace=wrap;html=1;" vertex="1" parent="1">
          <mxGeometry x="31" y="335" width="80" height="50" as="geometry" />
        </mxCell>
        <mxCell id="K81uS18izymxrRsmIKyo-195" style="edgeStyle=orthogonalEdgeStyle;rounded=0;orthogonalLoop=1;jettySize=auto;html=1;entryX=0.15;entryY=0.977;entryDx=0;entryDy=0;entryPerimeter=0;endArrow=none;endFill=0;" edge="1" parent="1" source="K81uS18izymxrRsmIKyo-193" target="K81uS18izymxrRsmIKyo-7">
          <mxGeometry relative="1" as="geometry" />
        </mxCell>
        <mxCell id="K81uS18izymxrRsmIKyo-197" value="&lt;span style=&quot;font-size: 10px;&quot;&gt;&lt;span&gt;n : 1&lt;/span&gt;&lt;/span&gt;" style="text;whiteSpace=wrap;html=1;align=center;fontStyle=1" vertex="1" parent="1">
          <mxGeometry x="115" y="345" width="30" height="30" as="geometry" />
        </mxCell>
        <mxCell id="K81uS18izymxrRsmIKyo-202" style="edgeStyle=orthogonalEdgeStyle;rounded=0;orthogonalLoop=1;jettySize=auto;html=1;endArrow=none;endFill=0;entryX=0.165;entryY=1.026;entryDx=0;entryDy=0;entryPerimeter=0;" edge="1" parent="1" source="K81uS18izymxrRsmIKyo-200" target="K81uS18izymxrRsmIKyo-162">
          <mxGeometry relative="1" as="geometry">
            <mxPoint x="120" y="550" as="targetPoint" />
          </mxGeometry>
        </mxCell>
        <mxCell id="K81uS18izymxrRsmIKyo-200" value="reside" style="rhombus;whiteSpace=wrap;html=1;" vertex="1" parent="1">
          <mxGeometry x="80" y="643.76" width="80" height="50" as="geometry" />
        </mxCell>
        <mxCell id="K81uS18izymxrRsmIKyo-204" value="&lt;span style=&quot;font-size: 10px;&quot;&gt;&lt;span&gt;1 : n&lt;/span&gt;&lt;/span&gt;" style="text;whiteSpace=wrap;html=1;align=center;fontStyle=1" vertex="1" parent="1">
          <mxGeometry x="47" y="653.76" width="30" height="30" as="geometry" />
        </mxCell>
      </root>
    </mxGraphModel>
  </diagram>
</mxfile>
